<svg width="25" height="24" viewBox="0 0 25 24" fill="none" xmlns="http://www.w3.org/2000/svg">
<g clip-path="url(#clip0)">
<path d="M24.5 12.0732C24.5 5.44624 19.127 0.0732422 12.5 0.0732422C5.873 0.0732422 0.5 5.44624 0.5 12.0732C0.5 18.0632 4.888 23.0272 10.625 23.9272V15.5422H7.578V12.0722H10.625V9.43024C10.625 6.42324 12.417 4.76124 15.158 4.76124C16.47 4.76124 17.844 4.99624 17.844 4.99624V7.94924H16.33C14.839 7.94924 14.374 8.87424 14.374 9.82324V12.0732H17.702L17.17 15.5432H14.374V23.9282C20.112 23.0272 24.5 18.0622 24.5 12.0732Z" fill="#333333"/>
</g>
<defs>
<clipPath id="clip0">
<rect width="24" height="24" fill="white" transform="translate(0.5)"/>
</clipPath>
</defs>
</svg>
